<mxfile host="65bd71144e">
    <diagram id="iuWHMxSHf5lVPQUuiU0g" name="Page-1">
        <mxGraphModel dx="942" dy="1139" grid="1" gridSize="10" guides="1" tooltips="1" connect="1" arrows="1" fold="1" page="1" pageScale="1" pageWidth="850" pageHeight="1100" math="0" shadow="0">
            <root>
                <mxCell id="0"/>
                <mxCell id="1" parent="0"/>
                <mxCell id="2" value="Android&lt;div&gt;权限分类&lt;/div&gt;" style="text;html=1;align=center;verticalAlign=middle;whiteSpace=wrap;rounded=0;fontSize=13;fontStyle=1" parent="1" vertex="1">
                    <mxGeometry x="130" y="300" width="60" height="30" as="geometry"/>
                </mxCell>
                <mxCell id="3" value="" style="shape=curlyBracket;whiteSpace=wrap;html=1;rounded=1;labelPosition=left;verticalLabelPosition=middle;align=right;verticalAlign=middle;strokeWidth=2;strokeColor=light-dark(#4D9900,#EDEDED);" parent="1" vertex="1">
                    <mxGeometry x="200" y="240" width="20" height="150" as="geometry"/>
                </mxCell>
                <mxCell id="4" value="安装时&lt;div&gt;权限&lt;/div&gt;" style="text;html=1;align=center;verticalAlign=middle;whiteSpace=wrap;rounded=0;fontSize=13;fontStyle=1" parent="1" vertex="1">
                    <mxGeometry x="230" y="223" width="60" height="30" as="geometry"/>
                </mxCell>
                <mxCell id="6" value="运行时&lt;div&gt;权限&lt;/div&gt;" style="text;html=1;align=center;verticalAlign=middle;whiteSpace=wrap;rounded=0;fontSize=13;fontStyle=1" parent="1" vertex="1">
                    <mxGeometry x="225" y="370" width="60" height="30" as="geometry"/>
                </mxCell>
                <mxCell id="12" value="normal" style="whiteSpace=wrap;html=1;rounded=1;arcSize=50;align=center;verticalAlign=middle;strokeWidth=2;autosize=1;spacing=4;treeFolding=1;treeMoving=1;newEdgeStyle={&quot;edgeStyle&quot;:&quot;entityRelationEdgeStyle&quot;,&quot;startArrow&quot;:&quot;none&quot;,&quot;endArrow&quot;:&quot;none&quot;,&quot;segment&quot;:10,&quot;curved&quot;:1,&quot;sourcePerimeterSpacing&quot;:0,&quot;targetPerimeterSpacing&quot;:0};fillColor=#EBF3FF;strokeColor=#000000;" parent="1" vertex="1">
                    <mxGeometry x="345" y="150" width="80" height="30" as="geometry"/>
                </mxCell>
                <mxCell id="13" value="" style="edgeStyle=entityRelationEdgeStyle;startArrow=none;endArrow=none;segment=10;curved=1;sourcePerimeterSpacing=0;targetPerimeterSpacing=0;exitX=1;exitY=0.25;exitDx=0;exitDy=0;strokeWidth=2;strokeColor=light-dark(#4D9900,#EDEDED);" parent="1" source="4" target="12" edge="1">
                    <mxGeometry relative="1" as="geometry">
                        <mxPoint x="250" y="520" as="sourcePoint"/>
                    </mxGeometry>
                </mxCell>
                <mxCell id="14" value="signature" style="whiteSpace=wrap;html=1;rounded=1;arcSize=50;align=center;verticalAlign=middle;strokeWidth=2;autosize=1;spacing=4;treeFolding=1;treeMoving=1;newEdgeStyle={&quot;edgeStyle&quot;:&quot;entityRelationEdgeStyle&quot;,&quot;startArrow&quot;:&quot;none&quot;,&quot;endArrow&quot;:&quot;none&quot;,&quot;segment&quot;:10,&quot;curved&quot;:1,&quot;sourcePerimeterSpacing&quot;:0,&quot;targetPerimeterSpacing&quot;:0};fillColor=#EBF3FF;strokeColor=#000000;" parent="1" vertex="1">
                    <mxGeometry x="340" y="223" width="90" height="30" as="geometry"/>
                </mxCell>
                <mxCell id="15" value="" style="edgeStyle=entityRelationEdgeStyle;startArrow=none;endArrow=none;segment=10;curved=1;sourcePerimeterSpacing=0;targetPerimeterSpacing=0;exitX=1;exitY=0.5;exitDx=0;exitDy=0;entryX=0;entryY=0.5;entryDx=0;entryDy=0;strokeWidth=2;strokeColor=light-dark(#4D9900,#EDEDED);" parent="1" source="4" target="14" edge="1">
                    <mxGeometry relative="1" as="geometry">
                        <mxPoint x="300" y="228" as="sourcePoint"/>
                        <mxPoint x="330" y="175" as="targetPoint"/>
                    </mxGeometry>
                </mxCell>
                <mxCell id="18" value="dangerous" style="whiteSpace=wrap;html=1;rounded=1;arcSize=50;align=center;verticalAlign=middle;strokeWidth=2;autosize=1;spacing=4;treeFolding=1;treeMoving=1;newEdgeStyle={&quot;edgeStyle&quot;:&quot;entityRelationEdgeStyle&quot;,&quot;startArrow&quot;:&quot;none&quot;,&quot;endArrow&quot;:&quot;none&quot;,&quot;segment&quot;:10,&quot;curved&quot;:1,&quot;sourcePerimeterSpacing&quot;:0,&quot;targetPerimeterSpacing&quot;:0};fillColor=#EBF3FF;strokeColor=#000000;" parent="1" vertex="1">
                    <mxGeometry x="335" y="370" width="100" height="30" as="geometry"/>
                </mxCell>
                <mxCell id="19" value="" style="edgeStyle=entityRelationEdgeStyle;startArrow=none;endArrow=none;segment=10;curved=1;sourcePerimeterSpacing=0;targetPerimeterSpacing=0;exitX=1;exitY=0.5;exitDx=0;exitDy=0;entryX=0;entryY=0.5;entryDx=0;entryDy=0;strokeWidth=2;strokeColor=light-dark(#4D9900,#EDEDED);" parent="1" source="6" target="18" edge="1">
                    <mxGeometry relative="1" as="geometry">
                        <mxPoint x="295" y="185" as="sourcePoint"/>
                        <mxPoint x="320" y="185" as="targetPoint"/>
                    </mxGeometry>
                </mxCell>
                <mxCell id="30" value="最基础的权限级别" style="rounded=1;whiteSpace=wrap;html=1;fillColor=#fff2cc;strokeColor=#000000;strokeWidth=2;" parent="1" vertex="1">
                    <mxGeometry x="470" y="142.5" width="120" height="45" as="geometry"/>
                </mxCell>
                <mxCell id="31" value="需要获取系统签名" style="rounded=1;whiteSpace=wrap;html=1;fillColor=#fff2cc;strokeColor=#000000;strokeWidth=2;" parent="1" vertex="1">
                    <mxGeometry x="470" y="216" width="120" height="45" as="geometry"/>
                </mxCell>
                <mxCell id="33" value="请求用户授权权限&lt;div&gt;或者使用系统uid&lt;/div&gt;" style="rounded=1;whiteSpace=wrap;html=1;fillColor=#fff2cc;strokeColor=#000000;strokeWidth=2;" parent="1" vertex="1">
                    <mxGeometry x="470" y="362.5" width="120" height="45" as="geometry"/>
                </mxCell>
                <mxCell id="36" value=":" style="text;html=1;align=center;verticalAlign=middle;whiteSpace=wrap;rounded=0;fontStyle=1;fontSize=17;fontColor=light-dark(#050505, #589916);" parent="1" vertex="1">
                    <mxGeometry x="425" y="150" width="60" height="30" as="geometry"/>
                </mxCell>
                <mxCell id="40" value=":" style="text;html=1;align=center;verticalAlign=middle;whiteSpace=wrap;rounded=0;fontStyle=1;fontSize=17;fontColor=light-dark(#050505, #589916);" parent="1" vertex="1">
                    <mxGeometry x="425" y="223" width="60" height="30" as="geometry"/>
                </mxCell>
                <mxCell id="41" value=":" style="text;html=1;align=center;verticalAlign=middle;whiteSpace=wrap;rounded=0;fontStyle=1;fontSize=17;fontColor=light-dark(#050505, #589916);" parent="1" vertex="1">
                    <mxGeometry x="425" y="370" width="60" height="30" as="geometry"/>
                </mxCell>
                <mxCell id="42" value="internal" style="whiteSpace=wrap;html=1;rounded=1;arcSize=50;align=center;verticalAlign=middle;strokeWidth=2;autosize=1;spacing=4;treeFolding=1;treeMoving=1;newEdgeStyle={&quot;edgeStyle&quot;:&quot;entityRelationEdgeStyle&quot;,&quot;startArrow&quot;:&quot;none&quot;,&quot;endArrow&quot;:&quot;none&quot;,&quot;segment&quot;:10,&quot;curved&quot;:1,&quot;sourcePerimeterSpacing&quot;:0,&quot;targetPerimeterSpacing&quot;:0};fillColor=#EBF3FF;strokeColor=#000000;" vertex="1" parent="1">
                    <mxGeometry x="345" y="297" width="80" height="30" as="geometry"/>
                </mxCell>
                <mxCell id="43" value="" style="edgeStyle=entityRelationEdgeStyle;startArrow=none;endArrow=none;segment=10;curved=1;sourcePerimeterSpacing=0;targetPerimeterSpacing=0;exitX=1;exitY=0.75;exitDx=0;exitDy=0;entryX=0;entryY=0.5;entryDx=0;entryDy=0;strokeWidth=2;strokeColor=light-dark(#4D9900,#EDEDED);" edge="1" parent="1" source="4" target="42">
                    <mxGeometry relative="1" as="geometry">
                        <mxPoint x="300" y="235" as="sourcePoint"/>
                        <mxPoint x="350" y="235" as="targetPoint"/>
                    </mxGeometry>
                </mxCell>
                <mxCell id="44" value=":" style="text;html=1;align=center;verticalAlign=middle;whiteSpace=wrap;rounded=0;fontStyle=1;fontSize=17;fontColor=light-dark(#050505, #589916);" vertex="1" parent="1">
                    <mxGeometry x="425" y="297" width="60" height="30" as="geometry"/>
                </mxCell>
                <mxCell id="45" value="内部应用" style="rounded=1;whiteSpace=wrap;html=1;fillColor=#fff2cc;strokeColor=#000000;strokeWidth=2;" vertex="1" parent="1">
                    <mxGeometry x="470" y="289" width="120" height="45" as="geometry"/>
                </mxCell>
                <mxCell id="46" value="0x0" style="text;html=1;align=center;verticalAlign=middle;whiteSpace=wrap;rounded=0;fontFamily=Lucida Console;" vertex="1" parent="1">
                    <mxGeometry x="355" y="112.5" width="60" height="30" as="geometry"/>
                </mxCell>
                <mxCell id="47" value="0x2" style="text;html=1;align=center;verticalAlign=middle;whiteSpace=wrap;rounded=0;fontFamily=Lucida Console;" vertex="1" parent="1">
                    <mxGeometry x="355" y="193" width="60" height="30" as="geometry"/>
                </mxCell>
                <mxCell id="48" value="0x4" style="text;html=1;align=center;verticalAlign=middle;whiteSpace=wrap;rounded=0;fontFamily=Lucida Console;" vertex="1" parent="1">
                    <mxGeometry x="355" y="270" width="60" height="30" as="geometry"/>
                </mxCell>
                <mxCell id="49" value="0x1" style="text;html=1;align=center;verticalAlign=middle;whiteSpace=wrap;rounded=0;fontFamily=Lucida Console;" vertex="1" parent="1">
                    <mxGeometry x="355" y="340" width="60" height="30" as="geometry"/>
                </mxCell>
            </root>
        </mxGraphModel>
    </diagram>
</mxfile>